<svg xmlns="http://www.w3.org/2000/svg" width="980" height="414.0" viewBox="0 0 980 414.0" font-family="ui-monospace, SFMono-Regular, Menlo, Consolas, monospace"><rect x="0" y="0" width="980" height="414.0" rx="12" fill="#0d1117"/><rect x="0" y="0" width="980" height="36" rx="12" fill="#161b22"/><rect x="0" y="24" width="980" height="12" fill="#161b22"/><circle cx="22" cy="18" r="6" fill="#ff5f57"/><circle cx="42" cy="18" r="6" fill="#febc2e"/><circle cx="62" cy="18" r="6" fill="#28c840"/><text x="450.0" y="23.0" fill="#8b949e" font-size="13" font-weight="normal" opacity="1">claude — ~/my-app</text><text x="24.0" y="70.0" fill="#c9d1d9" font-size="15" font-weight="normal" opacity="1">● I added the retry logic to fetchOrders() and updated the tests.</text><text x="24.0" y="90.0" fill="#8b949e" font-size="15" font-weight="normal" opacity="1">  3 files changed, all 42 tests pass.</text><rect x="24.0" y="122.0" width="115.2" height="60" fill="#3b4252"/><text x="52.8" y="157.0" fill="#ffffff" font-size="15" font-weight="normal" opacity="1">Gentle</text><rect x="148.8" y="122.0" width="115.2" height="60" fill="#2e7d4f"/><text x="177.6" y="157.0" fill="#ffffff" font-size="15" font-weight="bold" opacity="1">Strict</text><rect x="24.0" y="188.0" width="96.0" height="60" fill="#3b4252"/><text x="52.8" y="223.0" fill="#ffffff" font-size="15" font-weight="normal" opacity="1">Bugs</text><rect x="129.6" y="188.0" width="134.4" height="60" fill="#3b4252"/><text x="158.4" y="223.0" fill="#ffffff" font-size="15" font-weight="normal" opacity="1">Security</text><rect x="273.6" y="188.0" width="124.8" height="60" fill="#2e7d4f"/><text x="302.4" y="223.0" fill="#ffffff" font-size="15" font-weight="bold" opacity="1">Style ›</text><rect x="408.0" y="188.0" width="67.2" height="60" fill="#3b4252"/><text x="436.8" y="223.0" fill="#ffffff" font-size="15" font-weight="normal" opacity="1">✕</text><rect x="24.0" y="254.0" width="124.8" height="60" fill="#1f6feb"/><text x="52.8" y="289.0" fill="#ffffff" font-size="15" font-weight="normal" opacity="1">Explain</text><rect x="158.4" y="254.0" width="134.4" height="60" fill="#2e7d4f"/><text x="187.2" y="289.0" fill="#ffffff" font-size="15" font-weight="bold" opacity="1">Review ▴</text><rect x="302.4" y="254.0" width="124.8" height="60" fill="#bf8700"/><text x="331.2" y="289.0" fill="#ffffff" font-size="15" font-weight="normal" opacity="1">Tests ▾</text><rect x="436.8" y="254.0" width="105.6" height="60" fill="#cf222e"/><text x="465.6" y="289.0" fill="#ffffff" font-size="15" font-weight="normal" opacity="1">Git ▾</text><rect x="552.0" y="254.0" width="153.6" height="60" fill="#2e7d4f"/><text x="580.8" y="289.0" fill="#ffffff" font-size="15" font-weight="normal" opacity="1">Plan first</text><rect x="16" y="330.0" width="948" height="44" rx="6" fill="none" stroke="#30363d"/><text x="32.0" y="358.0" fill="#e6edf3" font-size="15" font-weight="normal" opacity="1">&gt; Review the current changes for readability and flag every inconsistency.<tspan fill="#e6edf3"> █</tspan></text><text x="24.0" y="396.0" fill="#6e7681" font-size="12" font-weight="normal" opacity="1">quickbar · buttons write into the prompt · selects open their options above the bar</text></svg>